<svg version="1" xmlns="http://www.w3.org/2000/svg" width="733.333" height="733.333" viewBox="0 0 550.000000 550.000000"><path d="M115.3 176.7c.2.5 5.3 9.3 11.2 19.6l10.8 18.9-2.3 4.1c-1.3 2.3-6 10.5-10.5 18.2-4.5 7.7-16.9 29.1-27.5 47.5-10.6 18.4-21.2 36.8-23.5 40.7l-4.2 7.3-11.2-19.5L46.9 294h-23c-12.7 0-22.8.3-22.6.7.2.5 4.7 8.3 10 17.4 5.3 9.1 10.1 17.7 10.8 19.2 1.1 2.4.3 4-9.7 21.3-6 10.4-11.1 19.2-11.2 19.6-.2.4 30.4.8 68 .8h68.4l12.3-21.3c15.4-26.4 63.3-109.4 71.8-124.2 3.4-6.1 6.3-11.7 6.2-12.5 0-.8-4.8-9.8-10.7-20l-10.7-18.5-45.8-.3c-25.2-.1-45.6.1-45.4.5zM257.9 187.7c3.8 6.5 8.9 15.3 11.4 19.7l4.5 7.8-6.7 11.7c-40.1 69.4-65.6 113.6-74 128-5.5 9.6-10.1 17.5-10.1 17.7 0 .2 30.7.4 68.3.4h68.3l11.4-19.6c6.3-10.8 11.4-20 11.3-20.4-.1-.3-5.2-9.3-11.3-19.8L319.8 294l11.3-19.5 11.3-19.5 22.9-.2 22.9-.3 11.4-19.6 11.4-19.7-5.8-9.8c-3.2-5.5-8.2-14.3-11.2-19.6l-5.5-9.8H251.1l6.8 11.7zM434.3 177.2c.3.7 5.2 9.6 11.1 19.7l10.6 18.4-22.4 38.6c-12.3 21.2-27.6 47.8-34.1 59.1-6.5 11.3-15.5 26.8-20 34.5-4.5 7.7-9.6 16.6-11.4 19.7l-3.2 5.8h136.9l10.2-17.6c5.5-9.7 10.7-18.6 11.5-19.8 1.2-1.9.4-3.7-10.1-21.9L501.9 294l22.6-39.1c13.7-23.7 22.4-39.7 22.1-40.6-.4-.9-5.4-9.8-11.2-19.9L524.8 176h-45.5c-36 0-45.4.3-45 1.2z"/></svg>