<svg viewbox="0 0 200 200" width="200" height="200" xmlns="http://www.w3.org/2000/svg" xmlns:svg="http://www.w3.org/2000/svg">
 <!-- Created with SVG-edit - http://svg-edit.googlecode.com/ -->
 <title>handmade</title>
 <g>
  <title>Layer 1</title>
  <g id="svg_13" transform="rotate(-135 98.81561279296875,99.37106323242188) " stroke="null">
   <line fill="none" stroke-width="7" stroke-dasharray="null" stroke-linejoin="null" stroke-linecap="null" x1="6.84846" y1="99.3328" x2="121.1545" y2="99.3328" id="svg_3" stroke="#000000"/>
   <ellipse fill="#ffffff" stroke-width="5" cx="-9.0079" cy="99.48385" id="svg_2" rx="18.44483" ry="4.5" stroke="#000000"/>
   <path fill="#000000" stroke-dasharray="null" stroke-linejoin="null" stroke-linecap="null" d="m4.30012,94.35095c15.86955,1.99946 15.93651,2.0036 15.8768,1.99177c-0.05971,-0.01182 -16.62614,1.2689 -16.68585,1.25708c-0.05971,-0.01182 0.80905,-3.24885 0.80905,-3.24885z" id="svg_5" stroke="#000000"/>
   <path fill="#000000" stroke-dasharray="null" stroke-linejoin="null" stroke-linecap="null" d="m6.07583,100.96066c15.9631,1.11888 16.03019,1.11913 15.96987,1.11044c-0.06032,-0.00869 -16.51985,2.32873 -16.58017,2.32004c-0.06032,-0.00869 0.6103,-3.43048 0.6103,-3.43048z" id="svg_6" stroke="#000000"/>
   <path fill="#000000" stroke-dasharray="null" stroke-linejoin="null" stroke-linecap="null" d="m121.58322,96.35585l103.50074,2.6044l-103.47778,3.36287l-0.02296,-5.96727z" id="svg_12" stroke="#000000"/>
  </g>
  <g stroke="null" id="svg_20" transform="rotate(-45 101.43009185791013,99.77005004882814) ">
   <line fill="none" stroke-width="7" stroke-dasharray="null" stroke-linejoin="null" stroke-linecap="null" x1="9.46294" y1="99.73179" x2="123.76898" y2="99.73179" stroke="#000000" id="svg_21"/>
   <ellipse fill="#ffffff" stroke-width="5" cx="-6.39342" cy="99.88284" rx="18.44483" ry="4.5" stroke="#000000" id="svg_22"/>
   <path fill="#000000" stroke-dasharray="null" stroke-linejoin="null" stroke-linecap="null" d="m6.9146,94.74994c15.86955,1.99946 15.9365,2.0036 15.8768,1.99177c-0.05971,-0.01182 -16.62615,1.26891 -16.68585,1.25708c-0.05971,-0.01182 0.80905,-3.24885 0.80905,-3.24885z" stroke="#000000" id="svg_23"/>
   <path fill="#000000" stroke-dasharray="null" stroke-linejoin="null" stroke-linecap="null" d="m8.69031,101.35965c15.96311,1.11889 16.03019,1.11913 15.96987,1.11044c-0.06032,-0.00868 -16.51985,2.32873 -16.58017,2.32004c-0.06032,-0.00869 0.6103,-3.43048 0.6103,-3.43048z" stroke="#000000" id="svg_24"/>
   <path fill="#000000" stroke-dasharray="null" stroke-linejoin="null" stroke-linecap="null" d="m124.1977,96.75484l103.50074,2.6044l-103.47778,3.36287l-0.02296,-5.96727z" stroke="#000000" id="svg_25"/>
  </g>
  <rect fill="none" stroke-width="3" stroke-dasharray="null" stroke-linejoin="null" stroke-linecap="null" fill-opacity="0" x="19.95118" y="74.40963" width="30.48144" height="15.90918" id="svg_4" rx="3" ry="3" stroke="#000000"/>
  <rect fill="none" stroke-width="3" stroke-dasharray="null" stroke-linejoin="null" stroke-linecap="null" fill-opacity="0" x="88.10608" y="26.64846" width="23.84668" height="38.7627" id="svg_8" rx="3" ry="3" stroke="#000000"/>
  <rect fill="none" stroke-width="3" stroke-dasharray="null" stroke-linejoin="null" stroke-linecap="null" fill-opacity="0" x="92.84138" y="15.01119" width="14.79816" height="10.38965" id="svg_9" rx="2" ry="2" stroke="#000000"/>
  <rect fill="#000000" stroke-width="null" stroke-dasharray="null" stroke-linejoin="null" stroke-linecap="null" x="88.80115" y="36.74513" width="23.25586" height="15.89941" id="svg_14" stroke="#000000"/>
  <rect fill="#000000" stroke-dasharray="null" stroke-linejoin="null" stroke-linecap="null" x="31.47275" y="90.53285" width="7.35644" height="44.37598" id="svg_15" rx="3" ry="3" stroke-width="3" stroke="#000000"/>
  <path fill="none" stroke-width="3" stroke-dasharray="null" stroke-linejoin="null" stroke-linecap="null" d="m162.33423,110.71191l0,-47.4082l15.24023,47.4082l-15.24023,0z" id="svg_35" stroke="#000000"/>
  <rect fill="#000000" stroke-dasharray="null" stroke-linejoin="null" stroke-linecap="null" x="162.15943" y="110.67803" width="7.35644" height="24.12598" rx="3" ry="3" stroke-width="3" id="svg_37" stroke="#000000"/>
  <rect fill="none" stroke-width="3" stroke-dasharray="null" stroke-linejoin="null" stroke-linecap="null" x="71.3414" y="151.77151" width="57.30909" height="14.28278" id="svg_38" rx="2" ry="2" stroke="#000000"/>
  <line fill="none" stroke-width="2" stroke-dasharray="null" stroke-linejoin="null" stroke-linecap="null" x1="79.97998" y1="164.81202" x2="79.97998" y2="158.4048" id="svg_39" stroke="#000000"/>
  <line fill="none" stroke-width="2" stroke-dasharray="null" stroke-linejoin="null" stroke-linecap="null" x1="89.99126" y1="164.6118" x2="89.99126" y2="158.20457" stroke="#000000" id="svg_41"/>
  <line fill="none" stroke-width="2" stroke-dasharray="null" stroke-linejoin="null" stroke-linecap="null" x1="100.00256" y1="164.81203" x2="100.00256" y2="158.4048" stroke="#000000" id="svg_42"/>
  <line fill="none" stroke-width="2" stroke-dasharray="null" stroke-linejoin="null" stroke-linecap="null" x1="110.11396" y1="165.01225" x2="110.11396" y2="158.60502" stroke="#000000" id="svg_43"/>
  <line fill="none" stroke-width="2" stroke-dasharray="null" stroke-linejoin="null" stroke-linecap="null" x1="120.12525" y1="165.01225" x2="120.12525" y2="158.60502" stroke="#000000" id="svg_44"/>
  <line fill="none" stroke-dasharray="null" stroke-linejoin="null" stroke-linecap="null" x1="104.99442" y1="167.12583" x2="104.99442" y2="160.71861" stroke="#000000" id="svg_46"/>
  <line fill="none" stroke-dasharray="null" stroke-linejoin="null" stroke-linecap="null" x1="115.20594" y1="167.50126" x2="115.20594" y2="161.09404" stroke="#000000" id="svg_47"/>
  <line fill="none" stroke-dasharray="null" stroke-linejoin="null" stroke-linecap="null" x1="95.00816" y1="167.276" x2="95.00816" y2="160.86878" stroke="#000000" id="svg_48"/>
  <line fill="none" stroke-dasharray="null" stroke-linejoin="null" stroke-linecap="null" x1="84.79664" y1="167.35109" x2="84.79664" y2="160.94386" stroke="#000000" id="svg_49"/>
  <line fill="none" stroke-dasharray="null" stroke-linejoin="null" stroke-linecap="null" x1="75.63631" y1="167.276" x2="75.63631" y2="160.86878" stroke="#000000" id="svg_50"/>
  <line fill="none" stroke-dasharray="null" stroke-linejoin="null" stroke-linecap="null" x1="124.44136" y1="167.276" x2="124.44136" y2="160.86878" stroke="#000000" id="svg_51"/>
 </g>
</svg>